<svg xmlns="http://www.w3.org/2000/svg" width="228" height="54" fill="none"><g clip-path="url(#A)"><path d="M52.24 40.196c0 1.45-.444 2.867-1.276 4.072s-2.014 2.145-3.398 2.699-2.906.7-4.374.417a7.65 7.65 0 0 1-3.876-2.006 7.26 7.26 0 0 1-2.071-3.753 7.11 7.11 0 0 1 .432-4.234c.573-1.339 1.544-2.483 2.789-3.288a7.75 7.75 0 0 1 4.207-1.234c.994 0 1.978.19 2.897.558a7.59 7.59 0 0 1 2.455 1.589c.703.681 1.26 1.488 1.64 2.377s.576 1.842.575 2.804z" fill="#74b74a"/><path d="M33.804 40.196c.001 1.451-.442 2.87-1.274 4.076s-2.015 2.148-3.4 2.703a7.81 7.81 0 0 1-4.378.419c-1.47-.283-2.821-.981-3.88-2.007s-1.782-2.333-2.074-3.757-.142-2.898.433-4.238 1.546-2.486 2.793-3.291 2.712-1.235 4.211-1.234c2.008 0 3.933.772 5.353 2.146s2.217 3.239 2.217 5.182z" fill="#979797"/><g fill="#000"><path d="M15.141 40.196a7.16 7.16 0 0 1-1.276 4.071c-.832 1.205-2.014 2.144-3.397 2.699s-2.905.7-4.373.418a7.65 7.65 0 0 1-3.876-2.005 7.26 7.26 0 0 1-2.073-3.752 7.11 7.11 0 0 1 .43-4.234 7.39 7.39 0 0 1 2.787-3.29 7.75 7.75 0 0 1 4.205-1.236 7.8 7.8 0 0 1 2.898.557c.919.368 1.754.908 2.457 1.588a7.32 7.32 0 0 1 1.642 2.378 7.12 7.12 0 0 1 .576 2.805zM52.24 22.602a7.16 7.16 0 0 1-1.276 4.072c-.832 1.205-2.014 2.145-3.398 2.699a7.81 7.81 0 0 1-4.374.417 7.65 7.65 0 0 1-3.876-2.007 7.26 7.26 0 0 1-2.071-3.753 7.11 7.11 0 0 1 .432-4.234c.573-1.339 1.544-2.483 2.789-3.288a7.75 7.75 0 0 1 4.207-1.234c2.007.001 3.932.773 5.351 2.148s2.216 3.238 2.216 5.181z"/></g><path d="M33.804 7.326a7.17 7.17 0 0 1-1.273 4.077c-.832 1.207-2.015 2.148-3.399 2.705a7.81 7.81 0 0 1-4.379.42c-1.47-.282-2.821-.981-3.881-2.007s-1.782-2.333-2.074-3.756-.142-2.898.432-4.239 1.546-2.486 2.793-3.292S24.735-.001 26.234 0c.994 0 1.978.189 2.897.557a7.59 7.59 0 0 1 2.456 1.588c.703.68 1.261 1.488 1.641 2.377s.576 1.842.576 2.804z" fill="#979797"/><g fill="#000"><path d="M74.716 41.242H64.29c0 2.042 1.014 3.062 3.042 3.061a2.71 2.71 0 0 0 1.372-.325 2.6 2.6 0 0 0 1.003-.963h4.812a6.22 6.22 0 0 1-1.692 2.845c-1.354 1.221-3.165 1.831-5.434 1.829-2.887 0-5.056-.85-6.506-2.55a6.89 6.89 0 0 1-1.634-4.644c0-2.168.681-3.93 2.042-5.287s3.283-2.036 5.765-2.036c3.056 0 5.24 1.076 6.554 3.227a8.01 8.01 0 0 1 1.111 4.225l-.008.619zm-4.645-2.741c-.35-1.533-1.288-2.299-2.814-2.299a2.72 2.72 0 0 0-1.894.597c-.528.429-.864 1.039-.937 1.702h5.645zm21.328-4.951L84.09 47.145h-3.303L73.539 33.55h5.581l3.359 6.974 3.375-6.974h5.545zm15.712 6.788c.032 1.793-.656 3.529-1.919 4.841-1.554 1.641-3.728 2.461-6.523 2.461s-4.974-.82-6.537-2.461a6.93 6.93 0 0 1-1.922-4.965c-.005-1.753.692-3.439 1.945-4.704 1.565-1.651 3.787-2.476 6.667-2.474 2.654 0 4.772.825 6.356 2.474a6.72 6.72 0 0 1 1.933 4.828zm-5.172 0a3.07 3.07 0 0 0-.247-1.212 3.15 3.15 0 0 0-.709-1.028c-.304-.294-.665-.527-1.062-.685a3.37 3.37 0 0 0-1.252-.238c-.478-.013-.952.081-1.386.275a3.08 3.08 0 0 0-1.115.843c-.506.572-.784 1.299-.784 2.052s.278 1.481.784 2.052a3.09 3.09 0 0 0 1.115.843 3.19 3.19 0 0 0 1.385.276 3.34 3.34 0 0 0 1.259-.234 3.25 3.25 0 0 0 1.067-.689 3.12 3.12 0 0 0 .707-1.035 3.05 3.05 0 0 0 .237-1.22zm10.656 6.807h-4.978V25.14h4.978v22.004z"/><path d="M129.824 33.55l-7.306 13.595h-3.317l-7.248-13.595h5.584l3.359 6.974 3.375-6.974h5.553z"/><path d="M134.462 28.327c0 .622-.223 1.224-.631 1.705a2.8 2.8 0 0 1-1.605.931 2.86 2.86 0 0 1-1.851-.266 2.72 2.72 0 0 1-1.257-1.342 2.61 2.61 0 0 1-.093-1.809 2.7 2.7 0 0 1 1.114-1.456 2.85 2.85 0 0 1 1.814-.442 2.82 2.82 0 0 1 1.693.772c.264.247.473.543.613.871s.21.681.203 1.036zm-.305 18.826h-4.979V33.558h4.979v13.595zm17.119-.008H146.3v-6.874c0-1.202-.142-1.995-.422-2.388a2.09 2.09 0 0 0-.81-.663c-.324-.151-.682-.218-1.04-.197-.352-.008-.701.054-1.027.182s-.621.319-.868.561c-.461.45-.692 1.15-.692 2.1v7.28h-4.978V33.55h4.978v1.713a6.31 6.31 0 0 1 1.586-1.364c.909-.456 1.925-.678 2.948-.643 1.511 0 2.74.396 3.686 1.189 1.078.896 1.616 2.241 1.615 4.034v8.665zm16.788-.939a13.01 13.01 0 0 1-.258 2.886c-.274 1.173-.981 2.222-2.12 3.149-1.44 1.172-3.357 1.759-5.75 1.759-2.5 0-4.492-.639-5.976-1.917-.989-.85-1.62-1.739-1.892-2.668a5.61 5.61 0 0 1-.122-.616h5.57a1.94 1.94 0 0 0 .65.958c.496.334 1.091.502 1.695.479 1.15 0 2.032-.393 2.647-1.181.384-.498.575-1.21.575-2.133v-1.285a8.41 8.41 0 0 1-1.494 1.113 6.19 6.19 0 0 1-2.964.675 7.03 7.03 0 0 1-3.837-1.076c-1.146-.714-2.023-1.768-2.5-3.004a7.49 7.49 0 0 1-.514-2.797c0-2.227.73-4.039 2.192-5.438a6.77 6.77 0 0 1 2.249-1.461 6.95 6.95 0 0 1 2.662-.487 5.97 5.97 0 0 1 2.72.602 5.53 5.53 0 0 1 1.481 1.2v-1.42h4.981l.005 12.661zm-4.739-5.903a3.06 3.06 0 0 0-.228-1.209 3.13 3.13 0 0 0-.689-1.032 2.98 2.98 0 0 0-1.025-.705 3.07 3.07 0 0 0-1.233-.234 3.11 3.11 0 0 0-1.357.279 3.01 3.01 0 0 0-1.085.835c-.497.58-.764 1.312-.753 2.066a3.02 3.02 0 0 0 .23 1.208c.16.384.397.733.698 1.027a3.15 3.15 0 0 0 1.032.687c.388.16.805.242 1.226.242a3.22 3.22 0 0 0 1.227-.242 3.15 3.15 0 0 0 1.032-.687 3.1 3.1 0 0 0 .695-1.027 3.02 3.02 0 0 0 .23-1.208z"/></g><g fill="#969696"><path d="M196.83 33.55l-7.351 13.595h-3.314l-3.514-7.458-3.356 7.458h-3.334l-7.223-13.595h5.54l3.359 7.165 3.525-7.165h3.117l3.509 7.369 3.525-7.369h5.517zm14.279 7.692h-10.426c0 2.042 1.013 3.062 3.039 3.061.48.014.954-.098 1.373-.325a2.6 2.6 0 0 0 1.003-.963h4.814a6.23 6.23 0 0 1-1.695 2.845c-1.352 1.219-3.163 1.829-5.433 1.829-2.886 0-5.055-.85-6.507-2.55a6.88 6.88 0 0 1-1.633-4.647c0-2.164.68-3.925 2.042-5.285s3.282-2.038 5.764-2.038c3.06 0 5.244 1.076 6.554 3.227a7.98 7.98 0 0 1 1.111 4.225l-.006.621zm-4.647-2.743c-.35-1.529-1.289-2.295-2.815-2.297a2.72 2.72 0 0 0-1.893.596 2.55 2.55 0 0 0-.937 1.7h5.645zM228 40.338c0 2.282-.81 4.117-2.43 5.502a6.97 6.97 0 0 1-4.657 1.74 5.95 5.95 0 0 1-2.886-.688c-.564-.317-1.052-.746-1.433-1.259v1.509h-4.979V25.138h4.979v9.757c.443-.472.97-.864 1.555-1.156a6.52 6.52 0 0 1 2.812-.616c1.675-.014 3.296.576 4.547 1.654 1.665 1.386 2.496 3.24 2.492 5.562zm-5.172.013a2.98 2.98 0 0 0-.77-2.012 3.03 3.03 0 0 0-1.083-.809 3.12 3.12 0 0 0-1.34-.267 3.3 3.3 0 0 0-1.281.181 3.22 3.22 0 0 0-1.102.657 3.08 3.08 0 0 0-.743 1.027 3.01 3.01 0 0 0 0 2.455 3.08 3.08 0 0 0 .743 1.027 3.22 3.22 0 0 0 1.102.658 3.28 3.28 0 0 0 1.281.181c.462.013.921-.077 1.342-.264s.79-.464 1.081-.812c.501-.561.774-1.278.77-2.02v-.003z"/></g></g><defs><clipPath id="A"><path fill="#fff" d="M0 0h228v54H0z"/></clipPath></defs></svg>
